<?xml version="1.0" standalone="no"?>
<!DOCTYPE svg PUBLIC "-//W3C//DTD SVG 1.1//EN" "http://www.w3.org/Graphics/SVG/1.1/DTD/svg11.dtd" >
<svg xmlns="http://www.w3.org/2000/svg">
<metadata></metadata>
<defs>
<font id="ticketbookmedium" horiz-adv-x="696" >
<font-face units-per-em="2048" ascent="1536" descent="-512" />
<missing-glyph horiz-adv-x="444" />
<glyph unicode="&#xfb01;" horiz-adv-x="808" d="M31 1001v146h92v156q0 106 53 157t166 51q63 0 98 -14v-149h-63q-32 0 -49 -20t-17 -52v-129h406v-1147h-191v1001h-215v-1001h-188v1001h-92zM526 1282v213h191v-213h-191z" />
<glyph unicode="&#xfb02;" horiz-adv-x="808" d="M31 1001v146h92v156q0 106 53 157t166 51q58 0 90 -14v-156h-55q-66 0 -66 -65v-129h215v348h191v-1495h-191v1001h-215v-1001h-188v1001h-92z" />
<glyph horiz-adv-x="2048" />
<glyph horiz-adv-x="2048" />
<glyph unicode="&#xd;" horiz-adv-x="2048" />
<glyph unicode=" "  horiz-adv-x="444" />
<glyph unicode="&#x09;" horiz-adv-x="444" />
<glyph unicode="&#xa0;" horiz-adv-x="444" />
<glyph unicode="!" horiz-adv-x="372" d="M78 1452h217l-27 -1075h-162zM90 0v213h193v-213h-193z" />
<glyph unicode="&#x22;" horiz-adv-x="667" d="M88 1413h199l-29 -465h-143zM381 1413h201l-29 -465h-143z" />
<glyph unicode="#" d="M41 475v158h90l12 125h-80l11 157h82l43 494h157l-43 -494h105l43 494h157l-45 -494h84v-157h-96l-12 -125h88v-158h-100l-43 -475h-156l43 475h-107l-41 -475h-157l43 475h-78zM289 633h104l13 125h-107z" />
<glyph unicode="$" d="M88 211v295h193v-293q0 -27 18 -44t49 -17q32 0 50 17t18 44v260q0 110 -80 143q-128 54 -188 127t-60 185v274q0 83 50 144t147 77v215h116v-215q101 -13 155 -75t54 -146v-295h-194v293q0 27 -18.5 44.5t-49.5 17.5t-49 -17.5t-18 -44.5v-262q0 -104 79 -139 q128 -55 189 -130t61 -186v-272q0 -85 -54 -147.5t-155 -73.5v-215h-116v215q-97 14 -147 75.5t-50 145.5z" />
<glyph unicode="%" horiz-adv-x="802" d="M16 0l586 1260q-49 -39 -100 -39q-40 0 -77 18.5t-58 42.5q0 -3 1 -9.5t1 -10.5v-295q0 -72 -47.5 -114t-120.5 -42q-71 0 -118.5 42t-47.5 114v303q0 70 47.5 111.5t118.5 41.5q91 0 143 -63q79 -92 158 -92q51 0 88 22.5t55 59.5l29 63h123l-660 -1413h-121zM160 969 q0 -45 41 -45q43 0 43 45v297q0 45 -43 45q-41 0 -41 -45v-297zM414 139v303q0 72 47.5 114t118.5 42q73 0 120.5 -42t47.5 -114v-303q0 -71 -47.5 -112t-120.5 -41q-71 0 -118.5 41.5t-47.5 111.5zM539 143q0 -45 41 -45q22 0 32.5 13t10.5 32v297q0 19 -10.5 32t-32.5 13 q-41 0 -41 -45v-297z" />
<glyph unicode="&#x26;" horiz-adv-x="731" d="M88 213v334q0 100 84 160q-84 60 -84 159v351q0 94 66 152t194 58q129 0 195.5 -57.5t66.5 -152.5v-269h-194v252q0 27 -18.5 44.5t-49.5 17.5t-49 -17.5t-18 -44.5v-340q0 -28 16 -46.5t47 -18.5h367v-177h-101v-618h-258q-264 0 -264 213zM281 238q0 -37 18 -52.5 t53 -15.5h64v448h-72q-31 0 -47 -18.5t-16 -46.5v-315z" />
<glyph unicode="'" horiz-adv-x="374" d="M88 1413h199l-29 -465h-143z" />
<glyph unicode="(" horiz-adv-x="452" d="M76 668q0 267 82 510.5t209 377.5l79 -59q-106 -136 -164.5 -359t-58.5 -470q0 -249 59 -473.5t164 -360.5l-79 -59q-126 134 -208.5 379t-82.5 514z" />
<glyph unicode=")" horiz-adv-x="452" d="M6 -166q105 136 164 360.5t59 471.5t-59 470.5t-164 360.5l80 59q126 -134 207.5 -378t81.5 -512t-81.5 -512.5t-207.5 -378.5z" />
<glyph unicode="*" horiz-adv-x="600" d="M43 1073l168 96l-166 99l76 108l143 -131l45 189l121 -41l-74 -176l197 20l-2 -133l-193 16l80 -176l-127 -39l-45 187l-143 -127z" />
<glyph unicode="+" d="M61 639v158h209v209h158v-209h209v-158h-209v-209h-158v209h-209z" />
<glyph unicode="," horiz-adv-x="372" d="M61 -274l95 274h-66v242h193v-242l-150 -274h-72z" />
<glyph unicode="-" horiz-adv-x="505" d="M72 623v127h360v-127h-360z" />
<glyph unicode="." horiz-adv-x="372" d="M90 0v242h193v-242h-193z" />
<glyph unicode="/" horiz-adv-x="512" d="M-20 -162l446 1702l106 -20l-446 -1702z" />
<glyph unicode="0" d="M88 197v1020q0 94 66 152t194 58q129 0 195.5 -57.5t66.5 -152.5v-1020q0 -95 -66.5 -153t-195.5 -58q-128 0 -194 58.5t-66 152.5zM281 213q0 -27 18 -44t49 -17q32 0 50 17t18 44v987q0 27 -18.5 44.5t-49.5 17.5t-49 -17.5t-18 -44.5v-987z" />
<glyph unicode="1" d="M113 1059v168l73 4q61 4 98 36t42 83l6 63h186v-1413h-199v1059h-206z" />
<glyph unicode="2" d="M76 0v176q7 10 21 29q151 214 207 318q112 210 112 413v264q0 27 -18.5 44.5t-49.5 17.5t-49 -17.5t-18 -44.5v-323h-193v325q0 97 66.5 161t193.5 64t194.5 -64.5t67.5 -160.5v-266q0 -51 -5 -99.5t-19.5 -98t-25.5 -87t-37.5 -89t-39.5 -79t-48 -81.5t-47 -73 t-52 -77.5t-49 -71.5l340 -2v-178h-551z" />
<glyph unicode="3" horiz-adv-x="688" d="M88 197v268h193v-252q0 -27 18 -44t49 -17q32 0 50 17t18 44v340q0 28 -16.5 46.5t-47.5 18.5h-100v177h100q31 0 47.5 18.5t16.5 46.5v340q0 27 -18.5 44.5t-49.5 17.5t-49 -17.5t-18 -44.5v-252h-193v269q0 95 65.5 152.5t194.5 57.5q128 0 195 -58t67 -152v-351 q0 -97 -84 -159q84 -62 84 -160v-350q0 -94 -67 -152.5t-195 -58.5t-194 58t-66 153z" />
<glyph unicode="4" d="M23 297v170q201 533 360 946h195v-940h90v-176h-90v-297h-195v297h-360zM193 473h190v588h-4l-186 -586v-2z" />
<glyph unicode="5" d="M88 197v278h193v-262q0 -27 18 -44t49 -17q32 0 50 17t18 44v459q0 27 -18 44t-50 17q-69 0 -72 -49h-186v729h504v-178h-311v-363q34 27 118 27q96 0 152.5 -59.5t56.5 -151.5v-491q0 -94 -67 -152.5t-195 -58.5t-194 58t-66 153z" />
<glyph unicode="6" horiz-adv-x="688" d="M86 195v909q0 56 4 96.5t19.5 86t43 74t77 47.5t118.5 19q68 0 116.5 -16t76 -41.5t43 -67.5t20 -82.5t4.5 -97.5v-176h-192v254q0 26 -18.5 43t-49.5 17t-49 -17t-18 -43v-389q72 25 120 25q49 0 86 -12.5t59.5 -34t36.5 -55t19.5 -70t5.5 -84.5v-289q0 -53 -5 -93.5 t-21.5 -82t-44.5 -68.5t-76 -44t-113 -17q-128 0 -195 57.5t-67 151.5zM281 211q0 -26 18 -42.5t49 -16.5t49.5 16.5t18.5 42.5v399q0 25 -18 41.5t-48 16.5q-46 0 -69 -17v-440z" />
<glyph unicode="7" d="M41 1235v178h616v-166q-138 -171 -202 -476.5t-64 -641.5v-129h-194v119q0 337 68.5 654t174.5 458v4h-399z" />
<glyph unicode="8" d="M88 201v303q0 58 26.5 112.5t73.5 90.5q-47 37 -73.5 90t-26.5 112v303q0 95 66 155t194 60t195 -60.5t67 -154.5v-303q0 -58 -27 -111.5t-75 -90.5q47 -37 74.5 -91.5t27.5 -111.5v-303q0 -94 -67 -154.5t-195 -60.5t-194 60t-66 155zM281 217q0 -27 18 -46t49 -19 t49.5 19t18.5 46v315q0 34 -18 60t-50 33q-67 -19 -67 -93v-315zM281 881q0 -73 67 -95q32 9 50 35t18 60v315q0 27 -18.5 46.5t-49.5 19.5t-49 -19t-18 -47v-315z" />
<glyph unicode="9" horiz-adv-x="688" d="M88 197v268h193v-252q0 -27 18 -44t49 -17q32 0 50 17t18 44v389q-55 -24 -121 -24q-103 0 -155 55.5t-52 150.5v433q0 95 65.5 152.5t194.5 57.5q128 0 195 -58t67 -152v-1020q0 -94 -67 -152.5t-195 -58.5t-194 58t-66 153zM281 803q0 -27 17.5 -43.5t47.5 -16.5 q45 0 70 19v438q0 27 -18.5 44.5t-49.5 17.5t-49 -17.5t-18 -44.5v-397z" />
<glyph unicode=":" horiz-adv-x="372" d="M90 0v242h193v-242h-193zM90 905v242h193v-242h-193z" />
<glyph unicode=";" horiz-adv-x="372" d="M61 -274l95 274h-66v242h193v-242l-150 -274h-72zM90 905v242h193v-242h-193z" />
<glyph unicode="&#x3c;" d="M92 694l367 322l106 -115l-243 -207l243 -205l-106 -114z" />
<glyph unicode="=" d="M80 467v158h536v-158h-536zM80 772v156h536v-156h-536z" />
<glyph unicode="&#x3e;" d="M117 487q41 34 121.5 103.5t121.5 103.5q-18 15 -243 207l106 113l367 -320q-285 -250 -367 -319z" />
<glyph unicode="?" horiz-adv-x="655" d="M72 897v305q0 97 66.5 161t193.5 64t194.5 -64.5t67.5 -160.5v-205q0 -75 -20 -140t-48 -110t-56.5 -85t-48.5 -82.5t-20 -85.5v-117h-190v129q0 50 19.5 97t47 87.5t55 83t47 100.5t19.5 123v203q0 27 -18 44.5t-49 17.5q-30 0 -48 -17.5t-18 -44.5v-303h-194zM211 0 v242h190v-242h-190z" />
<glyph unicode="@" horiz-adv-x="946" d="M88 0v1130q0 56 20.5 106t64 94t123 70.5t185.5 26.5q191 0 275 -70.5t84 -205.5v-1151h-189v47h-4q-9 -24 -43 -42.5t-92 -18.5q-74 0 -119 41t-45 125v755q0 85 46.5 130.5t121.5 45.5q55 0 88.5 -18.5t42.5 -42.5h4v113q0 53 -42 90t-128 37q-102 0 -153.5 -43.5 t-51.5 -104.5v-1114h-188zM539 201q0 -49 55 -49q26 0 41.5 13t15.5 36v665q0 49 -57 49q-55 0 -55 -49v-665z" />
<glyph unicode="A" horiz-adv-x="665" d="M4 0l182 1413h287q95 -707 186 -1413h-200l-47 432h-162q-24 -218 -45 -432h-201zM270 608h121l-49 467l-10 164h-4l-9 -164z" />
<glyph unicode="B" horiz-adv-x="686" d="M92 0v1413h254q60 0 105.5 -14t73 -38t44.5 -60t23 -74t6 -86v-283q0 -106 -96 -151q96 -52 96 -158v-277q0 -62 -10.5 -108t-37.5 -85t-78 -59t-126 -20h-254zM287 174h51q30 0 47.5 18t17.5 46v313q0 29 -17.5 49.5t-47.5 20.5h-51v-447zM287 791h51q30 0 47.5 20 t17.5 49v314q0 28 -17.5 46.5t-47.5 18.5h-51v-448z" />
<glyph unicode="C" horiz-adv-x="681" d="M88 197v1020q0 94 66 152t194 58q129 0 195.5 -57.5t66.5 -152.5v-320h-194v303q0 27 -18.5 44.5t-49.5 17.5t-49 -17.5t-18 -44.5v-987q0 -27 18 -44t49 -17q32 0 50 17t18 44v303h194v-319q0 -95 -66.5 -153t-195.5 -58q-128 0 -194 58.5t-66 152.5z" />
<glyph unicode="D" horiz-adv-x="686" d="M92 0v1413h246q128 0 195 -58.5t67 -152.5v-991q0 -94 -67 -152.5t-195 -58.5h-246zM287 174h51q31 0 49.5 18.5t18.5 47.5v934q0 28 -18 46.5t-50 18.5h-51v-1065z" />
<glyph unicode="E" horiz-adv-x="641" d="M92 0v1413h477v-176h-282v-440h243v-176h-243v-445h303v-176h-498z" />
<glyph unicode="F" horiz-adv-x="610" d="M92 0v1413h508v-176h-313v-440h272v-176h-272v-621h-195z" />
<glyph unicode="G" horiz-adv-x="688" d="M88 197v1020q0 94 66 152t194 58q129 0 195.5 -57.5t66.5 -152.5v-320h-194v303q0 27 -18.5 44.5t-49.5 17.5t-49 -17.5t-18 -44.5v-987q0 -27 18 -44t49 -17q32 0 50 17t18 44v358h-82v177h276v-551q0 -95 -66.5 -153t-195.5 -58q-128 0 -194 58.5t-66 152.5z" />
<glyph unicode="H" horiz-adv-x="753" d="M92 0v1413h195v-616h180v616h195v-1413h-195v621h-180v-621h-195z" />
<glyph unicode="I" horiz-adv-x="389" d="M98 0v1413h193v-1413h-193z" />
<glyph unicode="J" horiz-adv-x="647" d="M31 223v326h200v-324q0 -27 18 -46t48 -19q31 0 49.5 19t18.5 46v1188h198v-1190q0 -105 -76.5 -169t-189.5 -64q-112 0 -189 64t-77 169z" />
<glyph unicode="K" horiz-adv-x="720" d="M82 0v1413h192v-618h5l38 141l170 477h205l-250 -616l265 -797h-220l-170 592h-4l-39 -115v-477h-192z" />
<glyph unicode="L" horiz-adv-x="600" d="M92 0v1413h195v-1237h303v-176h-498z" />
<glyph unicode="M" horiz-adv-x="933" d="M92 0v1413h240l121 -969l12 -143h4l10 143l123 969h240v-1413h-170v1012h-4l-17 -181l-98 -831h-174l-96 831l-17 179h-4v-1010h-170z" />
<glyph unicode="N" horiz-adv-x="794" d="M96 0v1413h213l178 -758l31 -153h4v911h185v-1413h-191l-205 815l-26 137h-4v-952h-185z" />
<glyph unicode="O" d="M88 197v1020q0 94 66 152t194 58q129 0 195.5 -57.5t66.5 -152.5v-1020q0 -95 -66.5 -153t-195.5 -58q-128 0 -194 58.5t-66 152.5zM281 213q0 -27 18 -44t49 -17q32 0 50 17t18 44v987q0 27 -18.5 44.5t-49.5 17.5t-49 -17.5t-18 -44.5v-987z" />
<glyph unicode="P" horiz-adv-x="620" d="M92 0v1413h256q127 0 189.5 -58t62.5 -153v-510q0 -96 -67 -156.5t-195 -60.5h-51v-475h-195zM287 649h51q31 0 49.5 18.5t18.5 47.5v459q0 28 -18 46.5t-50 18.5h-51v-590z" />
<glyph unicode="Q" d="M88 197v1020q0 94 66 152t194 58q129 0 195.5 -57.5t66.5 -152.5v-1020q0 -74 -41.5 -126.5t-122.5 -72.5q6 -162 146 -162h82v-160q-44 -18 -103 -18q-123 0 -193 81t-71 249q-110 9 -164.5 65.5t-54.5 143.5zM281 213q0 -27 18 -44t49 -17q32 0 50 17t18 44v987 q0 27 -18.5 44.5t-49.5 17.5t-49 -17.5t-18 -44.5v-987z" />
<glyph unicode="R" horiz-adv-x="686" d="M92 0v1413h254q78 0 129.5 -20t77.5 -60t35.5 -84.5t9.5 -107.5v-262q0 -111 -92 -164q92 -45 92 -150v-565h-199v551q0 28 -17 49t-46 21h-49v-621h-195zM287 791h51q30 0 47.5 20t17.5 49v314q0 28 -17.5 46.5t-47.5 18.5h-51v-448z" />
<glyph unicode="S" d="M88 211v295h193v-293q0 -27 18 -44t49 -17q32 0 50 17t18 44v260q0 110 -80 143q-128 54 -188 127t-60 185v274q0 96 66.5 160.5t193.5 64.5t194.5 -64t67.5 -161v-295h-194v293q0 27 -18.5 44.5t-49.5 17.5t-49 -17.5t-18 -44.5v-262q0 -104 79 -139q128 -55 189 -130 t61 -186v-272q0 -96 -67.5 -160.5t-194.5 -64.5t-193.5 64t-66.5 161z" />
<glyph unicode="T" horiz-adv-x="581" d="M10 1237v176h561v-176h-184v-1237h-194v1237h-183z" />
<glyph unicode="U" d="M88 197v1216h193v-1200q0 -27 18 -44t49 -17q32 0 50 17t18 44v1200h194v-1216q0 -95 -66.5 -153t-195.5 -58q-128 0 -194 58.5t-66 152.5z" />
<glyph unicode="V" horiz-adv-x="638" d="M6 1413h199l102 -1071l8 -164h4l11 164l104 1071h201l-172 -1413h-289z" />
<glyph unicode="W" horiz-adv-x="1054" d="M6 1413h209l82 -1069l8 -158h4l10 158l91 1069h235l96 -1069l11 -158h4l8 158l76 1069h211l-148 -1413h-272l-86 975l-15 227h-4l-12 -227l-84 -975h-272z" />
<glyph unicode="X" horiz-adv-x="706" d="M20 0l207 733l-188 680h211l88 -448l12 -91h4l15 91l88 448h211l-189 -680l207 -733h-211l-104 489l-17 101h-4l-16 -103l-103 -487h-211z" />
<glyph unicode="Y" horiz-adv-x="659" d="M6 1413h199l104 -539l17 -116h4l16 116l107 539h202l-225 -852v-561h-205v559z" />
<glyph unicode="Z" horiz-adv-x="712" d="M51 0v156l373 1077v4h-352v176h579v-147l-385 -1088v-2h385v-176h-600z" />
<glyph unicode="[" horiz-adv-x="397" d="M82 -225v1781h305v-116h-156v-1549h156v-116h-305z" />
<glyph unicode="\" horiz-adv-x="512" d="M-20 1520l106 20l446 -1702l-106 -20z" />
<glyph unicode="]" horiz-adv-x="397" d="M10 -109h156v1549h-156v116h305v-1781h-305v116z" />
<glyph unicode="^" d="M27 635l319 366l320 -366l-113 -107l-207 244l-207 -244z" />
<glyph unicode="_" horiz-adv-x="512" d="M0 -205h512v-82h-512v82z" />
<glyph unicode="`" horiz-adv-x="901" d="M147 1548h197l137 -286h-112z" />
<glyph unicode="a" horiz-adv-x="655" d="M82 150v280q0 182 194 223l109 23v264q0 55 -57 55q-58 0 -58 -55v-174h-188v190q0 94 61 149.5t185 55.5t184.5 -53.5t60.5 -146.5v-961h-188v49h-4q-9 -24 -43.5 -43.5t-93.5 -19.5q-72 0 -117 40.5t-45 123.5zM270 205q0 -26 15.5 -39.5t42.5 -13.5q26 0 41.5 14 t15.5 39v336l-55 -17q-60 -18 -60 -86v-233z" />
<glyph unicode="b" horiz-adv-x="655" d="M82 0v1495h188v-395h4q9 24 43.5 42.5t90.5 18.5q165 0 165 -217v-733q0 -225 -170 -225q-54 0 -87 18t-42 41h-4v-45h-188zM270 201q0 -49 58 -49q55 0 55 49v743q0 49 -55 49q-58 0 -58 -49v-743z" />
<glyph unicode="c" horiz-adv-x="634" d="M82 190v766q0 94 61 149.5t185 55.5t184.5 -55.5t60.5 -149.5v-221h-188v205q0 55 -57 55q-58 0 -58 -55v-733q0 -55 58 -55q57 0 57 55v190h188v-207q0 -94 -60.5 -149t-184.5 -55t-185 55t-61 149z" />
<glyph unicode="d" horiz-adv-x="655" d="M82 152v741q0 57 7.5 102t25 84t52 60.5t83.5 21.5q54 0 87 -18.5t42 -42.5h4v395h190v-1495h-190v45h-4q-9 -24 -43 -41.5t-90 -17.5q-75 0 -119.5 41t-44.5 125zM270 201q0 -49 58 -49q55 0 55 49v743q0 49 -55 49q-58 0 -58 -49v-743z" />
<glyph unicode="e" horiz-adv-x="645" d="M82 190v766q0 94 61 149.5t185 55.5t184.5 -55.5t60.5 -149.5v-364h-303v-385q0 -55 58 -55q57 0 57 55v184h188v-201q0 -94 -60.5 -149t-184.5 -55t-185 55t-61 149zM270 707h115v233q0 55 -57 55q-58 0 -58 -55v-233z" />
<glyph unicode="f" horiz-adv-x="434" d="M31 1001v146h92v156q0 106 53 157t166 51q67 0 102 -14v-156h-67q-66 0 -66 -65v-129h97v-146h-97v-1001h-188v1001h-92z" />
<glyph unicode="g" horiz-adv-x="649" d="M72 193q0 47 27.5 87.5t68.5 65.5v4q-90 46 -90 164v442q0 94 61 149.5t185 55.5q12 0 36 -4q17 95 69 150t126 55q22 0 42.5 -4.5t30.5 -9t13 -7.5v-157h-57q-88 0 -111 -62q96 -60 96 -166v-432q0 -102 -60.5 -161.5t-184.5 -59.5q-42 0 -56 2q-37 -33 -37 -78 q0 -26 16.5 -43.5t47.5 -21.5l65 -8q228 -27 228 -242v-180q0 -97 -62.5 -157t-189.5 -60q-119 0 -179.5 59t-60.5 154v153q0 54 27.5 95t69.5 61v4q-53 14 -87 53.5t-34 98.5zM266 514q0 -25 15 -39t43 -14q26 0 40.5 14t14.5 39v426q0 55 -55 55q-58 0 -58 -55v-426z M287 -74v-194q0 -26 14.5 -41t40.5 -15q57 0 57 56v194q0 25 -15 39.5t-42 14.5q-26 0 -40.5 -14.5t-14.5 -39.5z" />
<glyph unicode="h" horiz-adv-x="655" d="M82 0v1495h188v-395h4q9 24 44 42.5t94 18.5q161 0 161 -157v-1004h-190v944q0 49 -55 49q-58 0 -58 -49v-944h-188z" />
<glyph unicode="i" horiz-adv-x="372" d="M92 0v1147h189v-1147h-189zM92 1282v213h189v-213h-189z" />
<glyph unicode="j" horiz-adv-x="378" d="M-20 -317h51q61 0 61 55v1409h189v-1440q0 -99 -50.5 -145.5t-154.5 -46.5q-56 0 -96 14v154zM92 1282v213h189v-213h-189z" />
<glyph unicode="k" horiz-adv-x="663" d="M82 0v1495h188v-813h4l21 78l141 387h199l-209 -469l231 -678h-200l-152 465h-4l-31 -84v-381h-188z" />
<glyph unicode="l" horiz-adv-x="372" d="M92 0v1495h189v-1495h-189z" />
<glyph unicode="m" horiz-adv-x="948" d="M82 0v1147h188v-47h4q9 24 42 42.5t92 18.5q106 0 145 -76h4q16 31 53 53.5t95 22.5q161 0 161 -155v-1006h-190v946q0 49 -53 49q-54 0 -54 -47v-948h-190v946q0 49 -53 49q-26 0 -41 -13t-15 -36v-946h-188z" />
<glyph unicode="n" horiz-adv-x="655" d="M82 0v1147h188v-47h4q9 24 44 42.5t94 18.5q161 0 161 -155v-1006h-188v946q0 49 -57 49q-27 0 -42.5 -13t-15.5 -36v-946h-188z" />
<glyph unicode="o" horiz-adv-x="655" d="M82 190v766q0 94 61 149.5t185 55.5t184.5 -55.5t60.5 -149.5v-766q0 -94 -60.5 -149t-184.5 -55t-185 55t-61 149zM270 207q0 -55 58 -55q57 0 57 55v733q0 55 -57 55q-58 0 -58 -55v-733z" />
<glyph unicode="p" horiz-adv-x="655" d="M82 -471v1618h188v-47h4q9 24 43.5 42.5t92.5 18.5q73 0 118 -41t45 -125v-833q0 -85 -46 -130.5t-121 -45.5q-55 0 -89 18.5t-43 42.5h-4v-518h-188zM270 201q0 -23 15.5 -36t42.5 -13q57 0 57 49v745q0 49 -57 49q-27 0 -42.5 -13t-15.5 -36v-745z" />
<glyph unicode="q" horiz-adv-x="655" d="M82 152v833q0 85 46.5 130.5t121.5 45.5q55 0 88.5 -18.5t42.5 -42.5h4v47h188v-1618h-188v518h-4q-9 -24 -43 -42.5t-92 -18.5q-74 0 -119 41t-45 125zM270 201q0 -49 58 -49q26 0 41.5 13t15.5 36v745q0 23 -15.5 36t-41.5 13q-58 0 -58 -49v-745z" />
<glyph unicode="r" horiz-adv-x="579" d="M82 0v1147h188v-47h4q9 25 41.5 43t90.5 18q88 0 122.5 -53.5t34.5 -177.5v-215h-190v229q0 49 -51 49q-52 0 -52 -49v-944h-188z" />
<glyph unicode="s" horiz-adv-x="634" d="M72 207v160h190v-160q0 -55 55 -55q58 0 58 55v125q0 55 -15.5 90t-60.5 61q-121 72 -174 147.5t-53 174.5v135q0 97 61.5 159t183.5 62q123 0 184.5 -62t61.5 -159v-166h-188v166q0 55 -58 55q-55 0 -55 -55v-129q0 -104 76 -149q124 -72 174.5 -143t50.5 -181v-131 q0 -97 -61.5 -159t-184.5 -62q-122 0 -183.5 62t-61.5 159z" />
<glyph unicode="t" horiz-adv-x="477" d="M20 1001v146h103v149q37 14 104 39t84 31v-219h133v-146h-133v-776q0 -31 17.5 -49t50.5 -18h65v-154q-40 -12 -102 -12q-114 0 -166.5 49.5t-52.5 155.5v804h-103z" />
<glyph unicode="u" horiz-adv-x="655" d="M82 150v997h188v-942q0 -26 15.5 -39.5t42.5 -13.5q26 0 41.5 14t15.5 39v942h188v-1147h-188v49h-4q-9 -24 -43.5 -43.5t-93.5 -19.5q-72 0 -117 40.5t-45 123.5z" />
<glyph unicode="v" horiz-adv-x="569" d="M6 1147h189l79 -789l11 -157h4l8 157l78 789h188l-155 -1147h-244z" />
<glyph unicode="w" horiz-adv-x="989" d="M10 1147h195l78 -813l6 -148h4l10 148l86 813h213l90 -813l8 -148h5l8 148l71 813h195l-141 -1147h-258l-70 684l-12 209h-4l-11 -209l-67 -684h-258z" />
<glyph unicode="x" horiz-adv-x="649" d="M27 0l182 586l-172 561h205l67 -338l13 -88h4l14 88l66 338h206l-172 -561l183 -586h-207l-76 358l-14 88h-4l-13 -88l-78 -358h-204z" />
<glyph unicode="y" horiz-adv-x="569" d="M6 1147h189l79 -789l11 -157h4l8 157l78 789h188l-192 -1399q-19 -121 -72 -177t-162 -56q-56 0 -96 14v154h51q57 0 83 25t34 73l27 219h-72z" />
<glyph unicode="z" horiz-adv-x="653" d="M51 0v125l344 872v4h-323v146h530v-125l-342 -875v-2h342v-145h-551z" />
<glyph unicode="{" horiz-adv-x="450" d="M55 584v147h51q47 0 84 40t37 112t-53 229t-53 236q0 78 77 141.5t173 66.5l16 -106q-42 -11 -72 -44.5t-30 -78.5q0 -53 27.5 -131t55 -166t27.5 -164q0 -74 -41.5 -129t-103.5 -78v-4q63 -25 104 -78.5t41 -127.5q0 -76 -27.5 -164t-55 -166t-27.5 -131q0 -45 30 -78.5 t72 -44.5l-35 -107q-95 3 -163 66t-68 143q0 79 53 236t53 229t-37 112t-84 40h-51z" />
<glyph unicode="|" horiz-adv-x="352" d="M123 -279v1876h106v-1876h-106z" />
<glyph unicode="}" horiz-adv-x="450" d="M55 449q0 74 41.5 127.5t104.5 78.5v4q-63 23 -104.5 78t-41.5 129q0 61 17.5 129.5t38 119.5t38 110t17.5 102q0 45 -30.5 78.5t-72.5 44.5l17 106q96 -3 173 -66.5t77 -141.5q0 -79 -53.5 -236t-53.5 -229t37 -112t84 -40h51v-147h-51q-47 0 -84 -40t-37 -112 t53.5 -229t53.5 -236t-68 -142.5t-162 -66.5l-37 107q42 11 72.5 44.5t30.5 78.5q0 53 -27.5 131t-55.5 166t-28 164z" />
<glyph unicode="~" horiz-adv-x="739" d="M37 643q30 57 81.5 96t119.5 39q54 0 141.5 -42t122.5 -42t58.5 16.5t45.5 47.5l94 -66q-30 -58 -81 -96.5t-119 -38.5q-54 0 -141.5 42t-122.5 42q-60 0 -105 -63z" />
<glyph unicode="&#xa1;" horiz-adv-x="372" d="M78 -305l28 1075h162l27 -1075h-217zM90 934v213h193v-213h-193z" />
<glyph unicode="&#xa2;" horiz-adv-x="647" d="M88 319v764q0 83 47 137.5t144 65.5v127h108v-127q96 -12 144.5 -66t48.5 -137v-221h-191v207q0 25 -14.5 39t-40.5 14q-28 0 -43 -14t-15 -39v-733q0 -55 58 -55q55 0 55 55v188h191v-205q0 -83 -48.5 -136.5t-144.5 -65.5v-117h-108v117q-97 13 -144 66.5t-47 135.5z " />
<glyph unicode="&#xa3;" horiz-adv-x="716" d="M35 629v125h102v465q0 94 66 152.5t194 58.5t195 -58.5t67 -152.5v-320h-194v303q0 26 -18.5 43t-49.5 17q-30 0 -47.5 -17t-17.5 -43v-448h178v-125h-178v-455h106q67 0 88 84l176 -41q-11 -89 -73 -153t-158 -64h-434v174h100v455h-102z" />
<glyph unicode="&#xa5;" horiz-adv-x="659" d="M4 1413h199l104 -539l19 -118h4l14 118l107 539h202l-190 -737h160v-137h-195v-84h195v-138h-195v-317h-205v317h-186v138h186v84h-186v137h151z" />
<glyph unicode="&#xa6;" horiz-adv-x="352" d="M109 -279v803h135v-803h-135zM109 725v803h135v-803h-135z" />
<glyph unicode="&#xa7;" horiz-adv-x="634" d="M72 205v166h188v-166q0 -55 57 -55q26 0 41 14.5t15 40.5v67q0 109 -76 154q-119 69 -172 146t-53 173q0 133 73 195q-73 84 -73 199v73q0 97 61.5 159.5t183.5 62.5t184 -62.5t62 -159.5v-165h-188v165q0 26 -15 41t-43 15q-26 0 -40.5 -15t-14.5 -41v-67 q0 -109 76 -154q119 -69 172 -146t53 -173q0 -129 -74 -197q74 -83 74 -196v-74q0 -97 -61.5 -159t-184.5 -62q-122 0 -183.5 62t-61.5 159zM260 752q0 -56 16 -93t60 -63q4 -4 6 -4q15 6 24 27.5t9 46.5q0 56 -16 92.5t-60 62.5q-2 0 -6 4q-16 -6 -24.5 -27.5t-8.5 -45.5z " />
<glyph unicode="&#xa8;" horiz-adv-x="684" d="M113 1282v213h170v-213h-170zM401 1282v213h170v-213h-170z" />
<glyph unicode="&#xa9;" horiz-adv-x="942" d="M82 279v856q0 134 94.5 216.5t294.5 82.5t294.5 -82.5t94.5 -216.5v-856q0 -134 -94.5 -216.5t-294.5 -82.5t-294.5 82.5t-94.5 216.5zM172 279q0 -92 74 -151.5t225 -59.5t225 59.5t74 151.5v856q0 92 -74 151.5t-225 59.5t-225 -59.5t-74 -151.5v-856zM303 444v525 q0 62 43.5 100.5t124.5 38.5t124.5 -38.5t43.5 -100.5v-156h-113v148q0 21 -15 36t-40 15q-26 0 -40.5 -14.5t-14.5 -36.5v-510q0 -21 14 -35.5t41 -14.5q25 0 40 14.5t15 35.5v149h113v-156q0 -64 -43.5 -102.5t-124.5 -38.5t-124.5 39.5t-43.5 101.5z" />
<glyph unicode="&#xaa;" horiz-adv-x="530" d="M92 846v117q0 66 35 109t102 58l82 19v121q0 47 -47 47t-47 -47v-90h-125v98q0 70 43.5 109.5t128.5 39.5q87 0 130.5 -38.5t43.5 -106.5v-547h-127v35h-4q-8 -17 -32.5 -31t-65.5 -14q-53 0 -85 30t-32 91zM217 881q0 -45 47 -45t47 45v174l-45 -15q-49 -15 -49 -73v-86 z" />
<glyph unicode="&#xab;" horiz-adv-x="923" d="M57 592l328 332l86 -88l-184 -244l184 -246l-86 -86zM422 592l328 332l86 -88l-185 -244l185 -246l-86 -86z" />
<glyph unicode="&#xac;" d="M61 569v156h535v-367h-156v211h-379z" />
<glyph unicode="&#xad;" horiz-adv-x="505" d="M72 623v127h360v-127h-360z" />
<glyph unicode="&#xae;" horiz-adv-x="942" d="M82 279v856q0 134 94.5 216.5t294.5 82.5t294.5 -82.5t94.5 -216.5v-856q0 -134 -94.5 -216.5t-294.5 -82.5t-294.5 82.5t-94.5 216.5zM172 279q0 -92 73.5 -151.5t225.5 -59.5q151 0 224 59.5t73 151.5v856q0 91 -73.5 149.5t-223.5 58.5q-152 0 -225.5 -58.5 t-73.5 -149.5v-856zM313 313v785h158q80 0 121 -39t41 -103v-125q0 -71 -62 -108q62 -35 62 -105v-305h-115v299q0 22 -14 39t-39 17h-39v-355h-113zM426 766h39q26 0 40.5 16.5t14.5 38.5v123q0 23 -14 38t-41 15h-39v-231z" />
<glyph unicode="&#xaf;" horiz-adv-x="667" d="M156 1280v127h362v-127h-362z" />
<glyph unicode="&#xb0;" horiz-adv-x="546" d="M82 1237q0 78 57 134t135 56t134.5 -56t56.5 -134t-56.5 -134t-134.5 -56t-135 56t-57 134zM158 1237q0 -47 34.5 -82t81.5 -35t82 35t35 82t-35 82t-82 35t-81.5 -35t-34.5 -82z" />
<glyph unicode="&#xb1;" d="M59 385v158h576v-158h-576zM59 825v156h211v209h156v-209h209v-156h-209v-211h-156v211h-211z" />
<glyph unicode="&#xb2;" horiz-adv-x="540" d="M68 561v127q115 128 153 182q101 142 101 281v106q0 20 -13.5 34t-38.5 14t-38 -14t-13 -34v-184h-141v187q0 72 50 119.5t142 47.5q91 0 142 -48t51 -119v-109q0 -52 -12 -102t-27 -86t-43.5 -80t-47.5 -67.5t-54 -65.5t-48 -58h248v-131h-411z" />
<glyph unicode="&#xb3;" horiz-adv-x="540" d="M78 711v145h141v-135q0 -19 13 -33t38 -14t38.5 14t13.5 33v153q0 21 -12 35.5t-36 14.5h-84v131h84q24 0 36 14t12 35v153q0 20 -13.5 34t-38.5 14t-38 -14t-13 -34v-135h-141v146q0 72 49 115.5t143 43.5q92 0 142.5 -44.5t50.5 -114.5v-160q0 -74 -60 -119 q60 -45 60 -119v-159q0 -70 -50.5 -115t-142.5 -45q-93 0 -142.5 44t-49.5 116z" />
<glyph unicode="&#xb4;" horiz-adv-x="901" d="M393 1262l135 286h199l-221 -286h-113z" />
<glyph unicode="&#xb6;" horiz-adv-x="722" d="M20 924v213q0 126 87.5 201t218.5 75h313v-1884h-92v1737h-90v-1737h-92v1118h-39q-131 0 -218.5 76t-87.5 201z" />
<glyph unicode="&#xb7;" horiz-adv-x="372" d="M90 569v242h193v-242h-193z" />
<glyph unicode="&#xb8;" horiz-adv-x="731" d="M70 -295l223 295h113l-140 -295h-196z" />
<glyph unicode="&#xb9;" horiz-adv-x="485" d="M66 1145v123l63 4q50 3 72.5 29.5t29.5 76.5l5 35h133v-856h-144v588h-159z" />
<glyph unicode="&#xba;" horiz-adv-x="530" d="M92 872v406q0 69 43.5 109t128.5 40q87 0 130.5 -39.5t43.5 -109.5v-406q0 -68 -43.5 -107.5t-130.5 -39.5q-85 0 -128.5 40t-43.5 107zM217 883q0 -47 47 -47t47 47v387q0 47 -47 47t-47 -47v-387z" />
<glyph unicode="&#xbb;" horiz-adv-x="923" d="M78 346q92 123 186 246q-81 103 -186 244l86 88l328 -332q-273 -277 -328 -332zM442 346q61 82 187 246q-99 126 -187 244l86 88l328 -332q-272 -277 -328 -332z" />
<glyph unicode="&#xbc;" horiz-adv-x="1216" d="M66 1145v123l63 4q50 3 72.5 29.5t29.5 76.5l5 35h133v-856h-144v588h-159zM254 0l549 1413h139l-549 -1413h-139zM627 150v110l278 594h139v-575h72v-129h-72v-150h-141v150h-276zM760 279h143v321h-4l-139 -317v-4z" />
<glyph unicode="&#xbd;" horiz-adv-x="1236" d="M66 1145v123l63 4q50 3 72.5 29.5t29.5 76.5l5 35h133v-856h-144v588h-159zM254 0l549 1413h139l-549 -1413h-139zM754 0v125q114 128 150 179q104 146 104 286v104q0 20 -13.5 34.5t-38.5 14.5t-38 -14.5t-13 -34.5v-182h-141v143q0 95 45.5 153t146.5 58q91 0 142 -49 t51 -121v-106q0 -52 -12 -103t-26 -86.5t-44 -80.5t-47 -66.5t-54 -65.5t-48 -57h247v-131h-411z" />
<glyph unicode="&#xbe;" horiz-adv-x="1216" d="M76 711v143h141v-133q0 -22 13 -35.5t38 -13.5t38 14.5t13 34.5v153q0 50 -47 50h-82v129h82q47 0 47 49v153q0 21 -12.5 35.5t-38.5 14.5q-25 0 -38 -14.5t-13 -35.5v-133h-141v123q0 83 46 132.5t146 49.5q193 0 193 -184v-135q0 -74 -58 -119q58 -49 58 -121v-133 q0 -186 -193 -186q-92 0 -142 45t-50 117zM264 0l549 1413h137l-547 -1413h-139zM627 150v110l278 594h139v-575h72v-129h-72v-150h-141v150h-276zM760 279h143v321h-4l-139 -317v-4z" />
<glyph unicode="&#xbf;" horiz-adv-x="655" d="M66 -55v205q0 75 20 140t48 110t56 85t48 82.5t20 85.5v117h191v-129q0 -50 -19.5 -97t-47.5 -87.5t-55.5 -83t-47 -100.5t-19.5 -123v-203q0 -27 18.5 -44.5t49.5 -17.5t49 17.5t18 44.5v303h193v-305q0 -97 -66.5 -161.5t-193.5 -64.5t-194.5 65t-67.5 161zM258 905 v242h191v-242h-191z" />
<glyph unicode="&#xc0;" horiz-adv-x="665" d="M4 0l182 1413h287q95 -707 186 -1413h-200l-47 432h-162q-24 -218 -45 -432h-201zM98 1823h197l137 -287h-113zM270 608h121l-49 467l-10 164h-4l-9 -164z" />
<glyph unicode="&#xc1;" horiz-adv-x="665" d="M4 0l182 1413h287q95 -707 186 -1413h-200l-47 432h-162q-24 -218 -45 -432h-201zM203 1536l135 287h199l-222 -287h-112zM270 608h121l-49 467l-10 164h-4l-9 -164z" />
<glyph unicode="&#xc2;" horiz-adv-x="665" d="M4 0l182 1413h287q95 -707 186 -1413h-200l-47 432h-162q-24 -218 -45 -432h-201zM76 1583l258 264l258 -264l-66 -65l-192 155l-193 -155zM270 608h121l-49 467l-10 164h-4l-9 -164z" />
<glyph unicode="&#xc3;" horiz-adv-x="665" d="M4 0l182 1413h287q95 -707 186 -1413h-200l-47 432h-162q-24 -218 -45 -432h-201zM80 1602q21 40 60 67t91 27q45 0 113 -31t98 -31q54 0 84 41l62 -49q-19 -39 -58.5 -66.5t-91.5 -27.5q-44 0 -112 30.5t-99 30.5q-56 0 -86 -41zM270 608h121l-49 467l-10 164h-4 l-9 -164z" />
<glyph unicode="&#xc4;" horiz-adv-x="665" d="M4 0l182 1413h287q95 -707 186 -1413h-200l-47 432h-162q-24 -218 -45 -432h-201zM104 1556v213h170v-213h-170zM270 608h121l-49 467l-10 164h-4l-9 -164zM393 1556v213h170v-213h-170z" />
<glyph unicode="&#xc5;" horiz-adv-x="665" d="M4 0l182 1413h287q95 -707 186 -1413h-200l-47 432h-162q-24 -218 -45 -432h-201zM145 1657q0 77 55.5 132.5t133.5 55.5t133 -55.5t55 -132.5q0 -78 -55 -134.5t-133 -56.5t-133.5 56.5t-55.5 134.5zM217 1657q0 -47 35 -82t82 -35t82 35t35 82t-35 82t-82 35t-82 -35 t-35 -82zM270 608h121l-49 467l-10 164h-4l-9 -164z" />
<glyph unicode="&#xc6;" horiz-adv-x="970" d="M6 0l303 1413h609v-176h-283v-440h244v-176h-244v-445h303v-176h-498l-2 621h-110l-123 -621h-199zM365 797h73l2 442h-4l-22 -164z" />
<glyph unicode="&#xc7;" horiz-adv-x="681" d="M55 -295l217 287q-91 14 -137.5 70t-46.5 135v1020q0 94 66 152t194 58q129 0 195.5 -57.5t66.5 -152.5v-320h-194v303q0 27 -18.5 44.5t-49.5 17.5t-49 -17.5t-18 -44.5v-987q0 -27 18 -44t49 -17q32 0 50 17t18 44v303h194v-319q0 -88 -57 -145t-166 -64l-133 -283 h-199z" />
<glyph unicode="&#xc8;" horiz-adv-x="641" d="M92 0v1413h477v-176h-282v-440h243v-176h-243v-445h303v-176h-498zM129 1823h197l137 -287h-113z" />
<glyph unicode="&#xc9;" horiz-adv-x="641" d="M92 0v1413h477v-176h-282v-440h243v-176h-243v-445h303v-176h-498zM238 1536l135 287h198l-221 -287h-112z" />
<glyph unicode="&#xca;" horiz-adv-x="641" d="M66 1583l258 264l258 -264l-66 -65l-192 155l-193 -155zM92 0v1413h477v-176h-282v-440h243v-176h-243v-445h303v-176h-498z" />
<glyph unicode="&#xcb;" horiz-adv-x="641" d="M92 0v1413h477v-176h-282v-440h243v-176h-243v-445h303v-176h-498zM94 1556v213h170v-213h-170zM383 1556v213h170v-213h-170z" />
<glyph unicode="&#xcc;" horiz-adv-x="389" d="M-39 1823h197l137 -287h-113zM98 0v1413h193v-1413h-193z" />
<glyph unicode="&#xcd;" horiz-adv-x="389" d="M98 0v1413h193v-1413h-193zM113 1536l135 287h198l-221 -287h-112z" />
<glyph unicode="&#xce;" horiz-adv-x="389" d="M-61 1583l258 264l258 -264l-66 -65l-192 155l-193 -155zM98 0v1413h193v-1413h-193z" />
<glyph unicode="&#xcf;" horiz-adv-x="389" d="M-33 1556v213h170v-213h-170zM98 0v1413h193v-1413h-193zM256 1556v213h170v-213h-170z" />
<glyph unicode="&#xd0;" horiz-adv-x="686" d="M16 643v125h76v645h246q128 0 195 -58.5t67 -152.5v-991q0 -94 -67 -152.5t-195 -58.5h-246v643h-76zM287 174h51q31 0 49.5 18.5t18.5 47.5v934q0 28 -18 46.5t-50 18.5h-51v-471h75v-125h-75v-469z" />
<glyph unicode="&#xd1;" horiz-adv-x="794" d="M96 0v1413h213l178 -758l31 -153h4v911h185v-1413h-191l-205 815l-26 137h-4v-952h-185zM141 1602q21 39 60.5 66.5t91.5 27.5q45 0 113 -31t98 -31q54 0 84 41l61 -49q-19 -39 -58 -66.5t-91 -27.5q-44 0 -112 30.5t-99 30.5q-56 0 -86 -41z" />
<glyph unicode="&#xd2;" d="M88 197v1020q0 94 66 152t194 58q129 0 195.5 -57.5t66.5 -152.5v-1020q0 -95 -66.5 -153t-195.5 -58q-128 0 -194 58.5t-66 152.5zM160 1823h196l138 -287h-113zM281 213q0 -27 18 -44t49 -17q32 0 50 17t18 44v987q0 27 -18.5 44.5t-49.5 17.5t-49 -17.5t-18 -44.5 v-987z" />
<glyph unicode="&#xd3;" d="M88 197v1020q0 94 66 152t194 58q129 0 195.5 -57.5t66.5 -152.5v-1020q0 -95 -66.5 -153t-195.5 -58q-128 0 -194 58.5t-66 152.5zM213 1536l135 287h199l-221 -287h-113zM281 213q0 -27 18 -44t49 -17q32 0 50 17t18 44v987q0 27 -18.5 44.5t-49.5 17.5t-49 -17.5 t-18 -44.5v-987z" />
<glyph unicode="&#xd4;" d="M88 197v1020q0 94 66 152t194 58q129 0 195.5 -57.5t66.5 -152.5v-1020q0 -95 -66.5 -153t-195.5 -58q-128 0 -194 58.5t-66 152.5zM92 1583l258 264l258 -264l-65 -65l-193 155l-192 -155zM281 213q0 -27 18 -44t49 -17q32 0 50 17t18 44v987q0 27 -18.5 44.5 t-49.5 17.5t-49 -17.5t-18 -44.5v-987z" />
<glyph unicode="&#xd5;" d="M88 197v1020q0 94 66 152t194 58q129 0 195.5 -57.5t66.5 -152.5v-1020q0 -95 -66.5 -153t-195.5 -58q-128 0 -194 58.5t-66 152.5zM96 1602q21 39 60.5 66.5t91.5 27.5q46 0 113 -31t98 -31q54 0 84 41l61 -49q-19 -39 -58 -66.5t-91 -27.5q-44 0 -112 30.5t-99 30.5 q-56 0 -86 -41zM281 213q0 -27 18 -44t49 -17q32 0 50 17t18 44v987q0 27 -18.5 44.5t-49.5 17.5t-49 -17.5t-18 -44.5v-987z" />
<glyph unicode="&#xd6;" d="M88 197v1020q0 94 66 152t194 58q129 0 195.5 -57.5t66.5 -152.5v-1020q0 -95 -66.5 -153t-195.5 -58q-128 0 -194 58.5t-66 152.5zM119 1556v213h170v-213h-170zM281 213q0 -27 18 -44t49 -17q32 0 50 17t18 44v987q0 27 -18.5 44.5t-49.5 17.5t-49 -17.5t-18 -44.5 v-987zM408 1556v213h170v-213h-170z" />
<glyph unicode="&#xd7;" d="M90 500l150 147l-150 148l111 112l149 -149l146 147l112 -110l-149 -148l149 -147l-112 -111l-146 148l-149 -150z" />
<glyph unicode="&#xd8;" horiz-adv-x="698" d="M39 -102l65 211q-16 43 -16 88v1020q0 94 66 152t194 58q97 0 158 -34l49 155l102 -32l-65 -211q18 -41 18 -88v-1020q0 -95 -66.5 -153t-195.5 -58q-94 0 -160 32l-47 -153zM281 213q0 -27 18 -44t49 -17q32 0 50 17t18 44v530l-135 -432v-98zM281 670l135 432v98 q0 27 -18.5 44.5t-49.5 17.5t-49 -17.5t-18 -44.5v-530z" />
<glyph unicode="&#xd9;" d="M88 197v1216h193v-1200q0 -27 18 -44t49 -17q32 0 50 17t18 44v1200h194v-1216q0 -95 -66.5 -153t-195.5 -58q-128 0 -194 58.5t-66 152.5zM150 1823h196l137 -287h-112z" />
<glyph unicode="&#xda;" d="M88 197v1216h193v-1200q0 -27 18 -44t49 -17q32 0 50 17t18 44v1200h194v-1216q0 -95 -66.5 -153t-195.5 -58q-128 0 -194 58.5t-66 152.5zM238 1536l135 287h198l-221 -287h-112z" />
<glyph unicode="&#xdb;" d="M88 197v1216h193v-1200q0 -27 18 -44t49 -17q32 0 50 17t18 44v1200h194v-1216q0 -95 -66.5 -153t-195.5 -58q-128 0 -194 58.5t-66 152.5zM92 1583l258 264l258 -264l-65 -65l-193 155l-192 -155z" />
<glyph unicode="&#xdc;" d="M88 197v1216h193v-1200q0 -27 18 -44t49 -17q32 0 50 17t18 44v1200h194v-1216q0 -95 -66.5 -153t-195.5 -58q-128 0 -194 58.5t-66 152.5zM119 1556v213h170v-213h-170zM408 1556v213h170v-213h-170z" />
<glyph unicode="&#xdd;" horiz-adv-x="659" d="M6 1413h199l104 -539l17 -116h4l16 116l107 539h202l-225 -852v-561h-205v559zM289 1528l135 287h199l-222 -287h-112z" />
<glyph unicode="&#xde;" horiz-adv-x="620" d="M92 0v1413h195v-221h61q127 0 189.5 -58.5t62.5 -154.5v-510q0 -94 -67 -154.5t-195 -60.5h-51v-254h-195zM287 428h51q32 0 50 18t18 46v460q0 29 -18.5 47.5t-49.5 18.5h-51v-590z" />
<glyph unicode="&#xdf;" horiz-adv-x="903" d="M31 1001v146h92v145q0 104 80 161.5t217 57.5q129 0 198.5 -68t69.5 -181q0 -56 -20 -117.5t-44.5 -105.5t-44.5 -95.5t-20 -91.5v-41q0 -109 76 -154q120 -71 173.5 -147.5t53.5 -171.5v-131q0 -97 -61.5 -159t-184.5 -62q-122 0 -183.5 62t-61.5 159v160h188v-160 q0 -55 57 -55q26 0 41 14.5t15 40.5v125q0 56 -16 92.5t-60 62.5q-121 72 -173 145.5t-52 172.5v53q0 51 18 104t40 90t40 83.5t18 85.5q0 50 -24 74t-62 24q-41 0 -65.5 -25t-24.5 -59v-1235h-188v1001h-92z" />
<glyph unicode="&#xe0;" horiz-adv-x="655" d="M82 150v280q0 182 194 223l109 23v264q0 55 -57 55q-58 0 -58 -55v-174h-188v190q0 94 61 149.5t185 55.5t184.5 -53.5t60.5 -146.5v-961h-188v49h-4q-9 -24 -43.5 -43.5t-93.5 -19.5q-72 0 -117 40.5t-45 123.5zM147 1548h197l137 -286h-112zM270 205q0 -26 15.5 -39.5 t42.5 -13.5q26 0 41.5 14t15.5 39v336l-55 -17q-60 -18 -60 -86v-233z" />
<glyph unicode="&#xe1;" horiz-adv-x="655" d="M82 150v280q0 182 194 223l109 23v264q0 55 -57 55q-58 0 -58 -55v-174h-188v190q0 94 61 149.5t185 55.5t184.5 -53.5t60.5 -146.5v-961h-188v49h-4q-9 -24 -43.5 -43.5t-93.5 -19.5q-72 0 -117 40.5t-45 123.5zM205 1262l135 286h199l-222 -286h-112zM270 205 q0 -26 15.5 -39.5t42.5 -13.5q26 0 41.5 14t15.5 39v336l-55 -17q-60 -18 -60 -86v-233z" />
<glyph unicode="&#xe2;" horiz-adv-x="655" d="M70 1309l258 264l258 -264l-66 -66l-192 156l-193 -156zM82 150v280q0 182 194 223l109 23v264q0 55 -57 55q-58 0 -58 -55v-174h-188v190q0 94 61 149.5t185 55.5t184.5 -53.5t60.5 -146.5v-961h-188v49h-4q-9 -24 -43.5 -43.5t-93.5 -19.5q-72 0 -117 40.5t-45 123.5z M270 205q0 -26 15.5 -39.5t42.5 -13.5q26 0 41.5 14t15.5 39v336l-55 -17q-60 -18 -60 -86v-233z" />
<glyph unicode="&#xe3;" horiz-adv-x="655" d="M78 1327q21 40 60 67t91 27q45 0 113 -30.5t98 -30.5q54 0 84 41l62 -49q-19 -39 -58.5 -67t-91.5 -28q-44 0 -112 31t-99 31q-56 0 -86 -41zM82 150v280q0 182 194 223l109 23v264q0 55 -57 55q-58 0 -58 -55v-174h-188v190q0 94 61 149.5t185 55.5t184.5 -53.5 t60.5 -146.5v-961h-188v49h-4q-9 -24 -43.5 -43.5t-93.5 -19.5q-72 0 -117 40.5t-45 123.5zM270 205q0 -26 15.5 -39.5t42.5 -13.5q26 0 41.5 14t15.5 39v336l-55 -17q-60 -18 -60 -86v-233z" />
<glyph unicode="&#xe4;" horiz-adv-x="655" d="M82 150v280q0 182 194 223l109 23v264q0 55 -57 55q-58 0 -58 -55v-174h-188v190q0 94 61 149.5t185 55.5t184.5 -53.5t60.5 -146.5v-961h-188v49h-4q-9 -24 -43.5 -43.5t-93.5 -19.5q-72 0 -117 40.5t-45 123.5zM100 1282v213h170v-213h-170zM270 205q0 -26 15.5 -39.5 t42.5 -13.5q26 0 41.5 14t15.5 39v336l-55 -17q-60 -18 -60 -86v-233zM389 1282v213h170v-213h-170z" />
<glyph unicode="&#xe5;" horiz-adv-x="655" d="M82 150v280q0 182 194 223l109 23v264q0 55 -57 55q-58 0 -58 -55v-174h-188v190q0 94 61 149.5t185 55.5t184.5 -53.5t60.5 -146.5v-961h-188v49h-4q-9 -24 -43.5 -43.5t-93.5 -19.5q-72 0 -117 40.5t-45 123.5zM139 1444q0 77 55.5 132.5t133.5 55.5t133 -55.5 t55 -132.5q0 -78 -55 -134.5t-133 -56.5t-133.5 56.5t-55.5 134.5zM211 1444q0 -47 35 -82t82 -35t81.5 35t34.5 82t-34.5 82t-81.5 35t-82 -35t-35 -82zM270 205q0 -26 15.5 -39.5t42.5 -13.5q26 0 41.5 14t15.5 39v336l-55 -17q-60 -18 -60 -86v-233z" />
<glyph unicode="&#xe6;" horiz-adv-x="948" d="M82 150v280q0 182 194 223l109 23v264q0 55 -57 55q-58 0 -58 -55v-174h-188v190q0 94 61 149.5t185 55.5q102 0 151 -43q52 43 152 43q124 0 185 -55.5t61 -149.5v-364h-304v-385q0 -55 58 -55q55 0 55 55v184h191v-201q0 -94 -61 -149t-185 -55t-176 61 q-70 -61 -187 -61q-186 0 -186 164zM270 205q0 -26 15.5 -39.5t42.5 -13.5q26 0 41.5 14t15.5 39v336l-55 -17q-60 -18 -60 -86v-233zM573 707h113v233q0 55 -55 55q-58 0 -58 -55v-233z" />
<glyph unicode="&#xe7;" horiz-adv-x="634" d="M39 -295l219 289q-45 7 -78 29.5t-51.5 52.5t-29.5 72.5t-14 79.5t-3 83v563q0 48 6 86.5t24 76.5t47 63.5t78.5 41t116.5 15.5q65 0 110 -21.5t67.5 -61t32 -84.5t9.5 -103v-154h-190v205q0 55 -55 55q-58 0 -58 -55v-731q0 -55 58 -55q55 0 55 55v188h190v-121 q0 -142 -43.5 -208t-158.5 -76l-133 -285h-199z" />
<glyph unicode="&#xe8;" horiz-adv-x="634" d="M82 190v766q0 94 61 149.5t185 55.5t184.5 -55.5t60.5 -149.5v-364h-303v-385q0 -55 58 -55q57 0 57 55v184h188v-201q0 -94 -60.5 -149t-184.5 -55t-185 55t-61 149zM137 1548h197l137 -286h-113zM270 707h115v233q0 55 -57 55q-58 0 -58 -55v-233z" />
<glyph unicode="&#xe9;" horiz-adv-x="634" d="M82 190v766q0 94 61 149.5t185 55.5t184.5 -55.5t60.5 -149.5v-364h-303v-385q0 -55 58 -55q57 0 57 55v184h188v-201q0 -94 -60.5 -149t-184.5 -55t-185 55t-61 149zM164 1262l135 286h199l-222 -286h-112zM270 707h115v233q0 55 -57 55q-58 0 -58 -55v-233z" />
<glyph unicode="&#xea;" horiz-adv-x="634" d="M61 1309l258 264l259 -264l-66 -66l-193 156l-192 -156zM82 190v766q0 94 61 149.5t185 55.5t184.5 -55.5t60.5 -149.5v-364h-303v-385q0 -55 58 -55q57 0 57 55v184h188v-201q0 -94 -60.5 -149t-184.5 -55t-185 55t-61 149zM270 707h115v233q0 55 -57 55q-58 0 -58 -55 v-233z" />
<glyph unicode="&#xeb;" horiz-adv-x="634" d="M82 190v766q0 94 61 149.5t185 55.5t184.5 -55.5t60.5 -149.5v-364h-303v-385q0 -55 58 -55q57 0 57 55v184h188v-201q0 -94 -60.5 -149t-184.5 -55t-185 55t-61 149zM90 1282v213h170v-213h-170zM270 707h115v233q0 55 -57 55q-58 0 -58 -55v-233zM379 1282v213h170 v-213h-170z" />
<glyph unicode="&#xec;" horiz-adv-x="372" d="M-39 1548h197l137 -286h-113zM92 0v1147h189v-1147h-189z" />
<glyph unicode="&#xed;" horiz-adv-x="372" d="M92 0v1147h189v-1147h-189zM113 1262l135 286h198l-221 -286h-112z" />
<glyph unicode="&#xee;" horiz-adv-x="372" d="M-70 1309l258 264l258 -264l-65 -66l-193 156l-192 -156zM92 0v1147h189v-1147h-189z" />
<glyph unicode="&#xef;" horiz-adv-x="372" d="M-41 1282v213h170v-213h-170zM92 0v1147h189v-1147h-189zM248 1282v213h170v-213h-170z" />
<glyph unicode="&#xf0;" horiz-adv-x="655" d="M25 1495h194l60 -76l104 51q45 -42 82 -71l-123 -62l143 -184q88 -101 88 -197v-766q0 -94 -60.5 -149t-184.5 -55t-185 55t-61 149v766q0 91 59.5 148t175.5 57q5 0 15.5 -1t15.5 -1l-119 123l-112 -55l-80 73l119 58zM270 207q0 -55 58 -55q57 0 57 55v733q0 55 -57 55 q-58 0 -58 -55v-733z" />
<glyph unicode="&#xf1;" horiz-adv-x="655" d="M78 1327q21 40 60 67t91 27q45 0 113 -30.5t98 -30.5q54 0 84 41l62 -49q-19 -39 -58.5 -67t-91.5 -28q-44 0 -112 31t-99 31q-56 0 -86 -41zM82 0v1147h188v-47h4q9 24 44 42.5t94 18.5q161 0 161 -155v-1006h-188v946q0 49 -57 49q-27 0 -42.5 -13t-15.5 -36v-946h-188 z" />
<glyph unicode="&#xf2;" horiz-adv-x="655" d="M82 190v766q0 94 61 149.5t185 55.5t184.5 -55.5t60.5 -149.5v-766q0 -94 -60.5 -149t-184.5 -55t-185 55t-61 149zM127 1548h197l137 -286h-113zM270 207q0 -55 58 -55q57 0 57 55v733q0 55 -57 55q-58 0 -58 -55v-733z" />
<glyph unicode="&#xf3;" horiz-adv-x="655" d="M82 190v766q0 94 61 149.5t185 55.5t184.5 -55.5t60.5 -149.5v-766q0 -94 -60.5 -149t-184.5 -55t-185 55t-61 149zM201 1262l135 286h199l-222 -286h-112zM270 207q0 -55 58 -55q57 0 57 55v733q0 55 -57 55q-58 0 -58 -55v-733z" />
<glyph unicode="&#xf4;" horiz-adv-x="655" d="M70 1309l258 264l258 -264l-66 -66l-192 156l-193 -156zM82 190v766q0 94 61 149.5t185 55.5t184.5 -55.5t60.5 -149.5v-766q0 -94 -60.5 -149t-184.5 -55t-185 55t-61 149zM270 207q0 -55 58 -55q57 0 57 55v733q0 55 -57 55q-58 0 -58 -55v-733z" />
<glyph unicode="&#xf5;" horiz-adv-x="655" d="M76 1327q21 40 60 67t91 27q45 0 113 -30.5t98 -30.5q54 0 84 41l62 -49q-19 -39 -58.5 -67t-91.5 -28q-44 0 -112 31t-99 31q-56 0 -86 -41zM82 190v766q0 94 61 149.5t185 55.5t184.5 -55.5t60.5 -149.5v-766q0 -94 -60.5 -149t-184.5 -55t-185 55t-61 149zM270 207 q0 -55 58 -55q57 0 57 55v733q0 55 -57 55q-58 0 -58 -55v-733z" />
<glyph unicode="&#xf6;" horiz-adv-x="655" d="M82 190v766q0 94 61 149.5t185 55.5t184.5 -55.5t60.5 -149.5v-766q0 -94 -60.5 -149t-184.5 -55t-185 55t-61 149zM100 1282v213h170v-213h-170zM270 207q0 -55 58 -55q57 0 57 55v733q0 55 -57 55q-58 0 -58 -55v-733zM389 1282v213h170v-213h-170z" />
<glyph unicode="&#xf7;" d="M61 629v155h576v-155h-576zM248 131v242h192v-242h-192zM248 1036v242h192v-242h-192z" />
<glyph unicode="&#xf8;" horiz-adv-x="655" d="M23 -115l77 213q-18 40 -18 92v766q0 94 61 149.5t185 55.5q80 0 147 -31l62 168l100 -36l-80 -220q16 -43 16 -86v-766q0 -94 -60.5 -149t-184.5 -55q-88 0 -146 28l-59 -166zM270 207q0 -55 58 -55q57 0 57 55v362l-115 -315v-47zM270 565l115 316v59q0 55 -57 55 q-58 0 -58 -55v-375z" />
<glyph unicode="&#xf9;" horiz-adv-x="655" d="M82 150v997h188v-942q0 -26 15.5 -39.5t42.5 -13.5q26 0 41.5 14t15.5 39v942h188v-1147h-188v49h-4q-9 -24 -43.5 -43.5t-93.5 -19.5q-72 0 -117 40.5t-45 123.5zM109 1548h196l137 -286h-112z" />
<glyph unicode="&#xfa;" horiz-adv-x="655" d="M82 150v997h188v-942q0 -26 15.5 -39.5t42.5 -13.5q26 0 41.5 14t15.5 39v942h188v-1147h-188v49h-4q-9 -24 -43.5 -43.5t-93.5 -19.5q-72 0 -117 40.5t-45 123.5zM242 1262l135 286h198l-221 -286h-112z" />
<glyph unicode="&#xfb;" horiz-adv-x="655" d="M70 1309l258 264l258 -264l-66 -66l-192 156l-193 -156zM82 150v997h188v-942q0 -26 15.5 -39.5t42.5 -13.5q26 0 41.5 14t15.5 39v942h188v-1147h-188v49h-4q-9 -24 -43.5 -43.5t-93.5 -19.5q-72 0 -117 40.5t-45 123.5z" />
<glyph unicode="&#xfc;" horiz-adv-x="655" d="M82 150v997h188v-942q0 -26 15.5 -39.5t42.5 -13.5q26 0 41.5 14t15.5 39v942h188v-1147h-188v49h-4q-9 -24 -43.5 -43.5t-93.5 -19.5q-72 0 -117 40.5t-45 123.5zM100 1282v213h170v-213h-170zM389 1282v213h170v-213h-170z" />
<glyph unicode="&#xfd;" horiz-adv-x="569" d="M6 1147h189l79 -789l11 -157h4l8 157l78 789h188l-192 -1399q-19 -121 -72 -177t-162 -56q-56 0 -96 14v154h51q57 0 83 25t34 73l27 219h-72zM270 1262l136 286h198l-221 -286h-113z" />
<glyph unicode="&#xfe;" horiz-adv-x="655" d="M82 -471v1966h188v-395h4q9 24 43.5 42.5t90.5 18.5q75 0 120 -42t45 -126v-770q0 -122 -40 -179.5t-130 -57.5q-54 0 -87 18t-42 41h-4v-516h-188zM270 201q0 -49 58 -49q55 0 55 49v743q0 49 -55 49q-58 0 -58 -49v-743z" />
<glyph unicode="&#xff;" horiz-adv-x="808" d="M6 1147h189l79 -789l11 -157h4l8 157l78 789h188l-192 -1399q-19 -121 -72 -177t-162 -56q-56 0 -96 14v154h51q57 0 83 25t34 73l27 219h-72zM68 1282v213h170v-213h-170zM356 1282v213h170v-213h-170z" />
<glyph unicode="&#x152;" horiz-adv-x="954" d="M92 211v991q0 94 67 152.5t195 58.5h529v-176h-283v-440h242v-176h-242v-445h303v-176h-549q-128 0 -195 58.5t-67 152.5zM287 240q0 -29 18 -47.5t49 -18.5h52v1065h-52q-31 0 -49 -18t-18 -47v-934z" />
<glyph unicode="&#x153;" horiz-adv-x="948" d="M82 190v766q0 94 61 149.5t185 55.5q101 0 151 -41q50 41 152 41q124 0 185 -55.5t61 -149.5v-364h-304v-385q0 -55 58 -55q55 0 55 55v184h191v-201q0 -94 -61 -149t-185 -55q-102 0 -152 41q-50 -41 -151 -41q-124 0 -185 55t-61 149zM270 207q0 -55 58 -55q57 0 57 55 v733q0 55 -57 55q-58 0 -58 -55v-733zM573 707h113v233q0 55 -55 55q-58 0 -58 -55v-233z" />
<glyph unicode="&#x178;" horiz-adv-x="931" d="M16 1413h199l104 -539l17 -116h4l16 116l107 539h203l-226 -852v-561h-204v559zM127 1569v213h170v-213h-170zM416 1569v213h170v-213h-170z" />
<glyph unicode="&#x2c6;" horiz-adv-x="901" d="M193 1309l258 264l258 -264l-66 -66l-192 156l-193 -156z" />
<glyph unicode="&#x2dc;" horiz-adv-x="765" d="M141 1327q21 39 60.5 66.5t91.5 27.5q45 0 113 -30.5t98 -30.5q54 0 84 41l61 -49q-19 -39 -58 -67t-91 -28q-44 0 -112 31t-99 31q-56 0 -86 -41z" />
<glyph unicode="&#x2000;" horiz-adv-x="923" />
<glyph unicode="&#x2001;" horiz-adv-x="1847" />
<glyph unicode="&#x2002;" horiz-adv-x="923" />
<glyph unicode="&#x2003;" horiz-adv-x="1847" />
<glyph unicode="&#x2004;" horiz-adv-x="615" />
<glyph unicode="&#x2005;" horiz-adv-x="461" />
<glyph unicode="&#x2006;" horiz-adv-x="307" />
<glyph unicode="&#x2007;" horiz-adv-x="307" />
<glyph unicode="&#x2008;" horiz-adv-x="230" />
<glyph unicode="&#x2009;" horiz-adv-x="369" />
<glyph unicode="&#x200a;" horiz-adv-x="102" />
<glyph unicode="&#x2010;" horiz-adv-x="505" d="M72 623v127h360v-127h-360z" />
<glyph unicode="&#x2011;" horiz-adv-x="505" d="M72 623v127h360v-127h-360z" />
<glyph unicode="&#x2012;" horiz-adv-x="505" d="M72 623v127h360v-127h-360z" />
<glyph unicode="&#x2013;" horiz-adv-x="534" d="M49 543v137h486v-137h-486z" />
<glyph unicode="&#x2014;" horiz-adv-x="903" d="M49 543v137h854v-137h-854z" />
<glyph unicode="&#x2018;" horiz-adv-x="342" d="M66 1192v221h190v-221h-63l94 -307h-72z" />
<glyph unicode="&#x2019;" horiz-adv-x="342" d="M55 885l95 307h-64v221h190v-221l-147 -307h-74z" />
<glyph unicode="&#x201a;" horiz-adv-x="342" d="M45 -305l94 305h-65v221h192v-221l-149 -305h-72z" />
<glyph unicode="&#x201c;" horiz-adv-x="618" d="M66 1192v221h190v-221h-63l94 -307h-72zM340 1192v221h192v-221h-65l94 -307h-72z" />
<glyph unicode="&#x201d;" horiz-adv-x="618" d="M55 885l95 307h-64v221h190v-221l-147 -307h-74zM330 885l96 307h-66v221h193v-221l-150 -307h-73z" />
<glyph unicode="&#x201e;" horiz-adv-x="618" d="M45 -305l94 305h-65v221h192v-221l-149 -305h-72zM319 -305l95 305h-66v221h193v-221l-150 -305h-72z" />
<glyph unicode="&#x2022;" horiz-adv-x="393" d="M82 717q0 45 34.5 77.5t80.5 32.5t79 -32t33 -78t-33 -79.5t-79 -33.5t-80.5 33.5t-34.5 79.5z" />
<glyph unicode="&#x2026;" horiz-adv-x="1120" d="M131 0v242h193v-242h-193zM506 0v242h190v-242h-190zM879 0v242h192v-242h-192z" />
<glyph unicode="&#x202f;" horiz-adv-x="369" />
<glyph unicode="&#x2039;" horiz-adv-x="552" d="M57 592q56 54 328 332l88 -88q-21 -27 -85.5 -112.5t-100.5 -131.5q32 -41 93.5 -123t92.5 -123l-88 -86z" />
<glyph unicode="&#x203a;" horiz-adv-x="552" d="M68 346q32 41 93 123t93 123q-36 46 -100.5 131.5t-85.5 112.5l88 88q300 -305 327 -332l-327 -332z" />
<glyph unicode="&#x205f;" horiz-adv-x="461" />
<glyph unicode="&#x20ac;" horiz-adv-x="688" d="M29 569v103h104v69h-104v105h104v371q0 94 67 152t195 58q129 0 194.5 -57.5t65.5 -152.5v-291h-192v274q0 27 -18.5 44.5t-49.5 17.5t-49 -17.5t-18 -44.5v-354h223l-35 -105h-188v-69h168l-35 -103h-133v-356q0 -27 18 -44t49 -17q32 0 50 17t18 44v274h192v-290 q0 -95 -66 -153t-194 -58t-195 58.5t-67 152.5v372h-104z" />
<glyph unicode="&#x2122;" horiz-adv-x="968" d="M20 1300v113h349v-113h-113v-593h-123v593h-113zM414 707v706h137l92 -475l4 -53h4l6 53l95 475h135v-706h-107v430h-4l-6 -66l-68 -364h-102l-68 364l-8 66h-4v-430h-106z" />
<glyph unicode="&#x25fc;" horiz-adv-x="1146" d="M0 0v1147h1147v-1147h-1147z" />
</font>
</defs>
</svg>
